{"title":"Live.at.The.Foxes.Den.2013.UNRATED.HDRip.XviD-EVO [P2PDL]","uid":9389803,"size":942584276,"categoryP":"video","categoryS":"movies","magnet":"?xt=urn:btih:8c287f013306641ab613fda1dd00809c104e5ac9&amp;dn=Live.at.The.Foxes.Den.2013.UNRATED.HDRip.XviD-EVO+%5BP2PDL%5D&amp;tr=udp%3A%2F%2Ftracker.openbittorrent.com%3A80&amp;tr=udp%3A%2F%2Fopen.demonii.com%3A1337&amp;tr=udp%3A%2F%2Ftracker.coppersurfer.tk%3A6969&amp;tr=udp%3A%2F%2Fexodus.desync.com%3A6969","seeders":1,"leechers":0,"uploader":"ValidusVyto","files":4,"time":1387867520,"description":"Live.at.The.Foxes.Den.2013.UNRATED.HDRip.XviD-EVO\n\nInfo:\nGeneral\nComplete name                            : Live.at.The.Foxes.Den.2013.UNRATED.HDRip.XviD-EVO/Live.at.The.Foxes.Den.2013.UNRATED.HDRip.XviD-EVO.avi\nFormat                                   : AVI\nFormat/Info                              : Audio Video Interleave\nFile size                                : 891 MiB\nDuration                                 : 1h 43mn\nOverall bit rate                         : 1 198 Kbps\nWriting library                          : VirtualDub build 35491/release\n\nVideo\nID                                       : 0\nFormat                                   : MPEG-4 Visual\nFormat profile                           : Advanced Simple@L5\nFormat settings, BVOP                    : 2\nFormat settings, QPel                    : No\nFormat settings, GMC                     : No warppoints\nFormat settings, Matrix                  : Default (H.263)\nMuxing mode                              : Packed bitstream\nCodec ID                                 : XVID\nCodec ID/Hint                            : XviD\nDuration                                 : 1h 43mn\nBit rate                                 : 996 Kbps\nWidth                                    : 640 pixels\nHeight                                   : 272 pixels\nDisplay aspect ratio                     : 2.35:1\nFrame rate                               : 23.976 fps\nColor space                              : YUV\nChroma subsampling                       : 4:2:0\nBit depth                                : 8 bits\nScan type                                : Progressive\nCompression mode                         : Lossy\nBits/(Pixel*Frame)                       : 0.239\nStream size                              : 741 MiB (83%)\nWriting library                          : XviD 64\n\nAudio\nID                                       : 1\nFormat                                   : AC-3\nFormat/Info                              : Audio Coding 3\nMode extension                           : CM (complete main)\nFormat settings, Endianness              : Big\nCodec ID                                 : 2000\nDuration                                 : 1h 43mn\nBit rate mode                            : Constant\nBit rate                                 : 192 Kbps\nChannel(s)                               : 6 channels\nChannel positions                        : Front: L C R, Side: L R, LFE\nSampling rate                            : 48.0 KHz\nBit depth                                : 16 bits\nCompression mode                         : Lossy\nStream size                              : 143 MiB (16%)\nAlignment                                : Aligned on interleaves\nInterleave, duration                     : 42 ms (1.00 video frame)\nInterleave, preload duration             : 512 ms\n\n\n","torrent":{"xt":"urn:btih:8c287f013306641ab613fda1dd00809c104e5ac9","amp;dn":"Live.at.The.Foxes.Den.2013.UNRATED.HDRip.XviD-EVO+%5BP2PDL%5D","amp;tr":["udp%3A%2F%2Ftracker.openbittorrent.com%3A80","udp%3A%2F%2Fopen.demonii.com%3A1337","udp%3A%2F%2Ftracker.coppersurfer.tk%3A6969","udp%3A%2F%2Fexodus.desync.com%3A6969"],"infoHash":"8c287f013306641ab613fda1dd00809c104e5ac9","infoHashBuffer":{"type":"Buffer","data":[140,40,127,1,51,6,100,26,182,19,253,161,221,0,128,156,16,78,90,201]},"announce":[],"urlList":[]}}